<svg xmlns="http://www.w3.org/2000/svg" width="200" height="136" viewBox="0 0 200 136">
  <rect width="200" height="136" fill="#ffffff"></rect>
  
  <g stroke="#c9c8c2" stroke-width="1.5" fill="none">
    <rect x="40" y="34" width="24" height="16" rx="2"></rect>
    <rect x="72" y="34" width="24" height="16" rx="2"></rect>
    <rect x="104" y="34" width="24" height="16" rx="2"></rect>
    <rect x="136" y="34" width="24" height="16" rx="2"></rect>
    <rect x="40" y="60" width="24" height="16" rx="2"></rect>
    <rect x="72" y="60" width="24" height="16" rx="2"></rect>
    <rect x="104" y="60" width="24" height="16" rx="2"></rect>
    <rect x="136" y="60" width="24" height="16" rx="2"></rect>
    <rect x="40" y="86" width="24" height="16" rx="2"></rect>
    <rect x="72" y="86" width="24" height="16" rx="2"></rect>
    <rect x="104" y="86" width="24" height="16" rx="2"></rect>
    <rect x="136" y="86" width="24" height="16" rx="2"></rect>
  </g>
  <g fill="#0b4f9c" opacity="0.85">
    <rect x="72" y="34" width="24" height="16" rx="2"></rect>
    <rect x="104" y="60" width="24" height="16" rx="2"></rect>
    <rect x="40" y="86" width="24" height="16" rx="2"></rect>
    <rect x="136" y="86" width="24" height="16" rx="2"></rect>
  </g>
</svg>